<svg xmlns="http://www.w3.org/2000/svg" xmlns:xlink="http://www.w3.org/1999/xlink" version="1.1" x="0px" y="0px" viewBox="0 0 80 100" enable-background="new 0 0 80 80" xml:space="preserve"><path fill="#fff" d="M71.6,58.6L41.1,3.3l0,0C41,3.2,40.9,3.1,40.8,3c-0.1-0.4-0.5-0.7-0.9-0.7c-0.5,0-0.8,0.3-0.9,0.7c-0.1,0.1-0.2,0.2-0.3,0.3  L8.1,58.5c-0.3,0.4-0.3,1,0,1.4c0.2,0.4,0.7,0.7,1.2,0.7h61.1c0.5,0,1-0.3,1.2-0.7C71.8,59.5,71.8,58.9,71.6,58.6z M38.9,24.1v34.5  c-9.1-0.5-16.3-8-16.3-17.3S29.8,24.6,38.9,24.1z M40.9,24.1c9.1,0.5,16.3,8,16.3,17.3S49.9,58,40.9,58.6V24.1z M51.1,25.7  c-2.9-2.1-6.5-3.4-10.3-3.6v-15L51.1,25.7z M38.9,7.1v15c-3.8,0.2-7.4,1.5-10.3,3.6L38.9,7.1z M10.4,58.6l10.3-18.5  c0,0.4-0.1,0.8-0.1,1.2c0,7.6,4.4,14.2,10.8,17.3H10.4z M48.4,58.6c6.4-3.2,10.8-9.7,10.8-17.3c0-0.4,0-0.8-0.1-1.2l10.3,18.5H48.4z  "/></svg>