<svg xmlns="http://www.w3.org/2000/svg" xmlns:xlink="http://www.w3.org/1999/xlink" version="1.1" x="0px" y="0px" viewBox="0 0 100 125" style="enable-background:new 0 0 100 100;" xml:space="preserve"><path d="M17.9755859,64.4208984h7.8613281c0.5527344,0,1-0.4477539,1-1v-6.1577148  c0-2.71875-2.2119141-4.9306641-4.9306641-4.9306641s-4.9306641,2.2119141-4.9306641,4.9306641v6.1577148  C16.9755859,63.9731445,17.4228516,64.4208984,17.9755859,64.4208984z M18.9755859,57.2631836  c0-1.6162109,1.3144531-2.9306641,2.9306641-2.9306641s2.9306641,1.3144531,2.9306641,2.9306641v5.1577148h-5.8613281V57.2631836z"/><path d="M17.9755859,81.1665039h7.8613281c0.5527344,0,1-0.4477539,1-1v-6.1572266  c0-2.71875-2.2119141-4.9306641-4.9306641-4.9306641s-4.9306641,2.2119141-4.9306641,4.9306641v6.1572266  C16.9755859,80.71875,17.4228516,81.1665039,17.9755859,81.1665039z M18.9755859,74.0092773  c0-1.6162109,1.3144531-2.9306641,2.9306641-2.9306641s2.9306641,1.3144531,2.9306641,2.9306641v5.1572266h-5.8613281V74.0092773z"/><path d="M25.3359375,47.222168c0.5527344,0,1-0.4477539,1-1v-4.0048828c0-0.5522461-0.4472656-1-1-1s-1,0.4477539-1,1v4.0048828  C24.3359375,46.7744141,24.7832031,47.222168,25.3359375,47.222168z"/><path d="M18.4755859,47.222168c0.5527344,0,1-0.4477539,1-1v-4.0048828c0-0.5522461-0.4472656-1-1-1s-1,0.4477539-1,1v4.0048828  C17.4755859,46.7744141,17.9228516,47.222168,18.4755859,47.222168z"/><path d="M74.1621094,64.4208984h7.8613281c0.5527344,0,1-0.4477539,1-1v-6.1577148  c0-2.71875-2.2119141-4.9306641-4.9306641-4.9306641s-4.9306641,2.2119141-4.9306641,4.9306641v6.1577148  C73.1621094,63.9731445,73.609375,64.4208984,74.1621094,64.4208984z M75.1621094,57.2631836  c0-1.6162109,1.3144531-2.9306641,2.9306641-2.9306641s2.9306641,1.3144531,2.9306641,2.9306641v5.1577148h-5.8613281V57.2631836z"/><path d="M74.1621094,81.1665039h7.8613281c0.5527344,0,1-0.4477539,1-1v-6.1572266  c0-2.71875-2.2119141-4.9306641-4.9306641-4.9306641s-4.9306641,2.2119141-4.9306641,4.9306641v6.1572266  C73.1621094,80.71875,73.609375,81.1665039,74.1621094,81.1665039z M75.1621094,74.0092773  c0-1.6162109,1.3144531-2.9306641,2.9306641-2.9306641s2.9306641,1.3144531,2.9306641,2.9306641v5.1572266h-5.8613281V74.0092773z"/><path d="M46.0302734,64.4208984h7.8613281c0.5527344,0,1-0.4477539,1-1v-6.1577148  c0-2.71875-2.2119141-4.9306641-4.9306641-4.9306641s-4.9306641,2.2119141-4.9306641,4.9306641v6.1577148  C45.0302734,63.9731445,45.4775391,64.4208984,46.0302734,64.4208984z M47.0302734,57.2631836  c0-1.6162109,1.3144531-2.9306641,2.9306641-2.9306641s2.9306641,1.3144531,2.9306641,2.9306641v5.1577148h-5.8613281V57.2631836z"/><path d="M81.5234375,47.222168c0.5527344,0,1-0.4477539,1-1v-4.0048828c0-0.5522461-0.4472656-1-1-1s-1,0.4477539-1,1v4.0048828  C80.5234375,46.7744141,80.9707031,47.222168,81.5234375,47.222168z"/><path d="M74.6630859,47.222168c0.5527344,0,1-0.4477539,1-1v-4.0048828c0-0.5522461-0.4472656-1-1-1s-1,0.4477539-1,1v4.0048828  C73.6630859,46.7744141,74.1103516,47.222168,74.6630859,47.222168z"/><path d="M11,90h78c0.5527344,0,1-0.4477539,1-1V33.2236328c0-0.0097656-0.005249-0.0178833-0.0055542-0.0275879  c-0.001709-0.0639038-0.0238037-0.1253662-0.038147-0.1889648c-0.0155029-0.067749-0.0236816-0.1367188-0.052124-0.1984253  c-0.0037842-0.0083008-0.0026855-0.0172119-0.0067139-0.0254517L78.9902344,10.5595703  c-0.3359375-0.6855469-1.4589844-0.6855469-1.7949219,0l-10.90625,22.2236328  c-0.0040283,0.0082397-0.0029297,0.0172729-0.0067139,0.0255737c-0.0283203,0.0615234-0.0365601,0.1303101-0.052002,0.1977539  c-0.0144043,0.0638428-0.0365601,0.1254272-0.038269,0.1895142c-0.0003052,0.0097046-0.0055542,0.0178223-0.0055542,0.0275879  V40.71875h-5.1230469V24.5532227c0-0.0400391-0.0181885-0.0740356-0.0227661-0.112854  c-0.0076294-0.067627-0.0181885-0.131897-0.039856-0.1975708c-0.0220337-0.0664673-0.0523682-0.125-0.0870972-0.1845093  c-0.0193481-0.0333862-0.0249023-0.0710449-0.0485229-0.1027222L50.7626953,10.4023438  C50.5742188,10.1489258,50.2763672,10,49.9609375,10c-0.0009766,0-0.0029297,0-0.0039062,0  c-0.3173828,0.0014648-0.6152344,0.152832-0.8027344,0.4086914L39.21875,23.9619141  c-0.0228882,0.031189-0.0279541,0.0681763-0.0466919,0.1010132c-0.0340576,0.05896-0.0631104,0.1173096-0.0846558,0.1830444  c-0.0216064,0.0661011-0.0327148,0.1307373-0.0401001,0.1987915c-0.0042114,0.0373535-0.0219116,0.0700073-0.0219116,0.1084595  V40.71875H33.8125v-7.4951172c0-0.0097656-0.005249-0.0178833-0.0055542-0.0275879  c-0.001709-0.0639038-0.0238037-0.1253662-0.038147-0.1889648c-0.0155029-0.067749-0.0236816-0.1367188-0.052124-0.1984253  c-0.0037842-0.0083008-0.0026855-0.0172119-0.0067139-0.0254517l-10.90625-22.2236328  c-0.3359375-0.6855469-1.4589844-0.6855469-1.7949219,0l-10.90625,22.2236328  c-0.0040283,0.0082397-0.0029297,0.0172729-0.0067139,0.0255737c-0.0283203,0.0615234-0.0365601,0.1303101-0.052002,0.1977539  c-0.0144043,0.0638428-0.0365601,0.1254272-0.038269,0.1895142C10.005249,33.2057495,10,33.2138672,10,33.2236328V89  C10,89.5522461,10.4472656,90,11,90z M31.8125,88H12V34.2236328h19.8125V88z M56.3339844,88H43.5888672V77.4506836  c0-3.5136719,2.8583984-6.3720703,6.3720703-6.3720703s6.3730469,2.8583984,6.3730469,6.3720703V88z M88,88H68.1865234V34.2236328  H88V88z M78.0927734,13.2695312l9.3027954,18.9541016H68.7908936L78.0927734,13.2695312z M53.3837891,40.71875h-6.6796875  c-0.5527344,0-1,0.4477539-1,1v3.1318359h-4.6787109v-2.3793945V41.71875V25.5532227h18.0380859V41.71875v0.7524414v2.3793945  h-4.6796875V41.71875C54.3837891,41.1665039,53.9365234,40.71875,53.3837891,40.71875z M49.9677734,12.6821289l8.1030884,10.8710938  H41.9985352L49.9677734,12.6821289z M39.0253906,42.71875v3.1318359c0,0.5522461,0.4472656,1,1,1h6.6787109  c0.5527344,0,1-0.4477539,1-1V42.71875h4.6796875v3.1318359c0,0.5522461,0.4472656,1,1,1h6.6796875c0.5527344,0,1-0.4477539,1-1  V42.71875h5.1230469V88h-7.8525391V77.4506836c0-4.6162109-3.7558594-8.3720703-8.3730469-8.3720703  c-4.6162109,0-8.3720703,3.7558594-8.3720703,8.3720703V88H33.8125V42.71875H39.0253906z M21.90625,13.2700195l9.3018799,18.9536133  H12.6043701L21.90625,13.2700195z"/><path d="M54.6982422,35.5019531v-3.9609375c0-0.5522461-0.4472656-1-1-1s-1,0.4477539-1,1v3.9609375c0,0.5522461,0.4472656,1,1,1  S54.6982422,36.0541992,54.6982422,35.5019531z"/><path d="M46.390625,30.5410156c-0.5527344,0-1,0.4477539-1,1v3.9609375c0,0.5522461,0.4472656,1,1,1s1-0.4477539,1-1v-3.9609375  C47.390625,30.9887695,46.9433594,30.5410156,46.390625,30.5410156z"/></svg>