<svg xmlns="http://www.w3.org/2000/svg" viewBox="0 0 100 125" x="0px" y="0px"><title>Artboard 1</title><g data-name="Layer 2"><path d="M50.83,48.79l-1,.62a18.74,18.74,0,0,1-3.8,2c-1.48.41-2.41-.66-3.94-2.59-.25-.3-.49-.62-.75-.92A.9.9,0,1,0,40,49.08l.72.89c1.26,1.59,2.66,3.36,4.74,3.36a4.06,4.06,0,0,0,1.1-.16,19.16,19.16,0,0,0,4.26-2.23l1-.61a.9.9,0,0,0-.93-1.54Z"/><path d="M47.15,33.32a10.87,10.87,0,0,0,2.67.45,3.28,3.28,0,0,0,2.92-1.45.9.9,0,0,0-1.49-1c-.65,1-2,.7-3.65.27a6.79,6.79,0,0,0-1.66-.31.9.9,0,1,0,0,1.8A6.84,6.84,0,0,1,47.15,33.32Z"/><path d="M99.46,80.34h0l-.09-.06c-1.06-.85-2.64-.51-5,0a52.9,52.9,0,0,1-5.25.93c-5.28.59-10.61.76-10.66.76-1.09,0-3.46,0-6.6-.1a4.43,4.43,0,0,0-.67-3,1.18,1.18,0,0,0,.22-.27c.52-.9-.19-1.86-1-3L69.93,75c.87-1.38,1.79-4.07,1.13-4.92a1.26,1.26,0,0,0-.2-.2l-3.17-2.16c-.58-1.48-1.76-5-1.61-6.82.09-1-.67-3.5-1.94-7.42-.66-2-1.34-4.12-1.47-4.94a32.08,32.08,0,0,0-2-4.67c-1-2.08-2.43-5.22-2.52-5.74V28.91a.81.81,0,0,0-.06-.31L54.9,20.11,54.57,8.79a.91.91,0,0,0-.67-.85.89.89,0,0,0-1,.4c0,.06-4.11,6.61-7.16,10.81A5.45,5.45,0,0,1,44,20.78a3.53,3.53,0,0,0-1.65,1.91A39,39,0,0,0,40,29.89a19.9,19.9,0,0,0-.27,2.58c-1,1.08-3.58,4.2-3.5,6.27.21,5.15-1.05,6.72-1.79,7.66a4.92,4.92,0,0,0-.5.7c-.76,1.33-.56,1.92-.49,2.11a1.16,1.16,0,0,0,.67.7,7.14,7.14,0,0,1,.84.38c-.12.42-.32,1-.52,1.51a10.83,10.83,0,0,0-1,4,9,9,0,0,1-.61,2.24c-.6,1.76-1.21,3.56-.65,4.75-.25.64-.66,1.56-1.13,2.61-2.48,5.59-3.72,8.74-3.61,10.45-1.31.59-3.32,1.65-2.72,3.51.17.51.32,1,.45,1.41-.64,0-1.2,0-1.68.08A81.51,81.51,0,0,0,10.22,81C1.37,81.74.64,82.75.4,83.09a1.1,1.1,0,0,0-.12,1.13C2,87.9,6.11,88.41,12.6,88c2.78-.15,10.48.66,19.41,1.61C42.18,90.74,53.72,92,61.18,92.08h.53c5.18,0,21.89-.85,28.07-2.36,6.68-1.63,9.93-6.78,10-8.46a1.08,1.08,0,0,0-.35-.92ZM58.05,51.17c-2.74,0-5,1.57-7.15,3.09-1.91,1.33-3.7,2.57-5.56,2.53s-3-1.51-4.4-3.33a15.12,15.12,0,0,0-5.66-5,4.86,4.86,0,0,1,.23-.45,3.6,3.6,0,0,1,.34-.47c.91-1.13,2.42-3,2.19-8.85,0-1,1.5-3.22,2.81-4.73a5.05,5.05,0,0,1,1.6,1.62,5.86,5.86,0,0,0,1.73,1.83.9.9,0,1,0,1-1.53,4.61,4.61,0,0,1-1.21-1.33,6.51,6.51,0,0,0-2.37-2.28,17.63,17.63,0,0,1,.24-2.07A37.71,37.71,0,0,1,44,23.36,1.78,1.78,0,0,1,45,22.3a7.17,7.17,0,0,0,2.24-2.09c1.89-2.61,4.16-6.1,5.65-8.42l.24,8.44c-.22,1.71-1,4.63-2,5.39a1.26,1.26,0,0,1-1.05.26,4.64,4.64,0,0,1-2.38-2.41.9.9,0,0,0-1.57.89c.74,1.3,1.95,2.92,3.56,3.27a2.72,2.72,0,0,0,.63.08,3.16,3.16,0,0,0,1.84-.62,7,7,0,0,0,2.14-3.63l2.1,5.61v3.1c-.4.81-3.1,3.71-5.15,3.95a.88.88,0,0,0-.79,1,.9.9,0,0,0,.89.8h.1c1.71-.2,3.6-1.57,4.95-2.92v3.17c0,.63.64,2.1,2.69,6.5.8,1.7,1.79,3.81,1.88,4.18a46.37,46.37,0,0,0,1.52,5.23c.61,1.86,1.45,4.46,1.76,5.86a12.8,12.8,0,0,0-2.77.62c-1.53.48-2.84.89-4,.14a.89.89,0,0,0-1.24.29.91.91,0,0,0,.29,1.24,4.54,4.54,0,0,0,2.43.68,10.3,10.3,0,0,0,3.1-.63,11.5,11.5,0,0,1,2.35-.55,25.24,25.24,0,0,0,1.6,6.37c-.84.54-2,.09-3.77-.69l-.27-.12a.9.9,0,0,0-.73,1.64l.27.12a9.52,9.52,0,0,0,3.7,1.1,3.12,3.12,0,0,0,2-.65l2.44,1.67a8.49,8.49,0,0,1-1,2.76c-.55-.21-1.33-.5-1.9-.65s-1.73-.33-3.54-.62c-2.19-.35-5.21-.84-8.4-1.46-.23,0-.46-.1-.69-.13a76.61,76.61,0,0,1-11.07-2.89,10.54,10.54,0,0,0-3.56-.71c.17-.38.33-.8.49-1.23,1-2.67,1.83-4.39,4-4,.6.1,1.36,1.46,2,2.55.93,1.67,1.9,3.4,3.49,3.84a.9.9,0,1,0,.48-1.73c-.87-.24-1.68-1.7-2.4-3l-.07-.11.23,0a4.69,4.69,0,0,0,1.17-.15c4-1,6.85-6.81,7-7.05a.9.9,0,1,0-1.62-.79c-.72,1.47-3.16,5.44-5.78,6.09a3,3,0,0,1-2.62-.58,2.76,2.76,0,0,0-1.53-.88,4.43,4.43,0,0,0-2.25.17c-3.49-.6-6.05-4.24-6.61-5.11a13.12,13.12,0,0,1,.87-3.07c.15-.39.28-.76.39-1.1a20,20,0,0,1,3,3.26c1.59,2,3.09,3.93,5.75,4,2.47.08,4.59-1.41,6.65-2.86s4-2.76,6.12-2.76a.9.9,0,0,0,0-1.8ZM49.86,72c-.67.26-1.38.56-2.14.88-3.73,1.56-8.38,3.5-10.78,2.26a3.19,3.19,0,0,1-1.57-2.25,3.82,3.82,0,0,1,1.63-3c1.27-.83,3.1-.85,5.3,0A65.16,65.16,0,0,0,49.86,72Zm-21.41,5.4a3.59,3.59,0,0,0,1.74.38,10.59,10.59,0,0,0,2.14-.26A.9.9,0,0,0,33,76.46.89.89,0,0,0,32,75.78c-1.68.36-2.45.21-2.68,0-.27-1.24,2.34-7.12,3.47-9.66L33.27,65c.09.21.17.43.26.68a.89.89,0,0,0,.85.61,1,1,0,0,0,.29,0,.91.91,0,0,0,.56-1.15,12.09,12.09,0,0,0-1.38-2.95c-.31-.43.39-2.46.72-3.43.09-.27.18-.51.26-.75A13.19,13.19,0,0,0,40,62a12.69,12.69,0,0,0-1.86,3.64c-.35.91-.82,2.15-1.18,2.29l0,0a5.61,5.61,0,0,0-1,.49A5.68,5.68,0,0,0,33.56,73a1.94,1.94,0,0,0,0,.24,5,5,0,0,0,2.53,3.57,5.85,5.85,0,0,0,2.73.59c2.88,0,6.38-1.46,9.57-2.79,2.16-.91,4.38-1.85,5.29-1.72l.59.11a14.49,14.49,0,0,1,4.91,2.93.91.91,0,0,0,1.27-.14.9.9,0,0,0-.14-1.27l-.72-.56,3.18.52c1.64.26,2.93.47,3.38.59a21.38,21.38,0,0,1,2.07.72c.22.34.46.67.7,1s.42.56.59.82a11.43,11.43,0,0,1-2-.38.9.9,0,0,0-.46,1.74,13.46,13.46,0,0,0,2.23.43c.67,1.06,1,1.84.61,2.47l-2.64-.08a17,17,0,0,1-5.05-1.93c-1.12-.55-2.4-1.17-3.92-1.83a.88.88,0,0,0-1.18.46.9.9,0,0,0,.46,1.18c1.49.66,2.75,1.27,3.86,1.81l.28.14-1,0c-11.82-.39-26-.85-33.65-.75-.15-.5-.36-1.19-.6-1.93C26.33,78.39,27.88,77.68,28.45,77.42ZM89.35,88c-5.85,1.43-23.17,2.36-28.15,2.31-7.37-.12-18.86-1.34-29-2.43C24,87,16.78,86.22,13.37,86.22c-.33,0-.62,0-.87,0-6.13.35-9-.24-10.28-2.23,2.71-1,15.08-2,21.2-1.32.34,0,2.34.37,4.87.79,8,1.34,22.94,3.82,25.84,3.82.35,0,34.51-.1,39.5-1.13A14,14,0,0,1,89.35,88Zm4-3.6c-3.27.85-31.55,1.12-39.26,1.12-2.19,0-12.42-1.63-20.22-2.91,7.72.11,17.92.44,26.76.73l9.7.31h0c3.16.09,5.71.15,7.24.15h.89c.06,0,5.46-.17,10.82-.78a48.82,48.82,0,0,0,5.43-1,18.05,18.05,0,0,1,2.87-.48A6.67,6.67,0,0,1,93.39,84.38Z"/><path d="M53.44,40.37c-.31.09-1,.34-1.77.65a46.4,46.4,0,0,1-4.51,1.58,2.48,2.48,0,0,1-2.37-.31.89.89,0,0,0-1.26.14.91.91,0,0,0,.13,1.27,3.83,3.83,0,0,0,2.47.84,5.82,5.82,0,0,0,1.44-.19,47.19,47.19,0,0,0,4.75-1.65c.75-.29,1.36-.53,1.65-.62a.9.9,0,0,0-.53-1.71Z"/></g></svg>