<svg xmlns="http://www.w3.org/2000/svg" xmlns:xlink="http://www.w3.org/1999/xlink" version="1.1" x="0px" y="0px" viewBox="0 0 100 125" style="enable-background:new 0 0 100 100;" xml:space="preserve"><path d="M53.0595703,24.9858398c-0.0087891,0-0.0175781,0-0.0263672,0  c-14.3974609,0.015625-26.0986328,11.7412109-26.0830078,26.1381836c0.0009766,0.5522461,0.4482422,0.9990234,1,0.9990234h0.0009766  c0.5527344-0.0004883,1-0.4487305,0.9990234-1.0009766c-0.0136719-13.2944336,10.7900391-24.121582,24.0849609-24.1362305  c0.0087891,0,0.015625,0,0.0244141,0c5.0722656,0,9.9248047,1.5566406,14.0322266,4.5014648  c0.4501953,0.3237305,1.0742188,0.2182617,1.3955078-0.2299805c0.3222656-0.4487305,0.21875-1.0732422-0.2294922-1.3950195  C63.8076172,26.671875,58.5527344,24.9858398,53.0595703,24.9858398z"/><path d="M50.0332031,82.1523438h0.0009766c8.5888672-0.0092773,16.6591797-3.3623047,22.7255859-9.4414062  s9.4013672-14.1572266,9.3925781-22.7451172c-0.0087891-8.090332-3.0322266-15.8183594-8.5136719-21.7607422  c-0.375-0.4057617-1.0078125-0.4316406-1.4130859-0.0566406c-0.40625,0.3745117-0.4316406,1.0068359-0.0576172,1.4130859  c5.140625,5.5722656,7.9765625,12.8193359,7.984375,20.40625c0.0087891,8.0541992-3.1191406,15.6293945-8.8085938,21.3305664  c-5.6884766,5.7006836-13.2578125,8.8452148-21.3115234,8.8540039c-0.5527344,0.0004883-1,0.4487305-0.9990234,1.0009766  S49.4814453,82.1523438,50.0332031,82.1523438z"/><path d="M49.9697266,21.3227539c0.5527344-0.0004883,1-0.4487305,0.9990234-1.0009766s-0.4482422-0.9990234-1-0.9990234h-0.0009766  c-8.3056641,0.0087891-16.1113281,3.2514648-21.9775391,9.1308594c-5.8671875,5.8789062-9.0927734,13.690918-9.0839844,21.996582  c0.0048828,4.2578125,0.8535156,8.3813477,2.5234375,12.2563477c0.1621094,0.378418,0.53125,0.6049805,0.9179688,0.6049805  c0.1328125,0,0.2666016-0.0263672,0.3955078-0.0820312c0.5078125-0.21875,0.7412109-0.8066406,0.5224609-1.3139648  c-1.5605469-3.6245117-2.3544922-7.4829102-2.359375-11.4672852c-0.0078125-7.7714844,3.0107422-15.0810547,8.5-20.5820312  S42.1982422,21.3310547,49.9697266,21.3227539z"/><path d="M49.9599609,12.0004883c0.0136719,0,0.0273438,0,0.0410156,0c4.8984375,0,9.6669922,0.918457,14.1708984,2.7304688  c0.1220703,0.0493164,0.2480469,0.0727539,0.3730469,0.0727539c0.3955078,0,0.7705078-0.2373047,0.9277344-0.6274414  c0.2060547-0.512207-0.0419922-1.0947266-0.5546875-1.3007812c-4.7421875-1.9077148-9.7607422-2.875-14.9169922-2.875  c-0.6005859,0.0019531-1.0429688,0.4350586-1.0419922,1.0009766c0.0009766,0.5522461,0.4482422,0.9990234,1,0.9990234H49.9599609z"/><path d="M87.7666016,59.8222656c0.0761719,0.0175781,0.1513672,0.0258789,0.2265625,0.0258789  c0.4550781,0,0.8662109-0.3120117,0.9736328-0.7739258C89.6552734,56.1035156,90.0029297,53.0361328,90,49.9580078  c-0.0136719-12.7236328-5.8740234-24.3945312-16.0791016-32.0200195c-0.4433594-0.3295898-1.0683594-0.2392578-1.3994141,0.2026367  c-0.3310547,0.4423828-0.2402344,1.0693359,0.2021484,1.3999023C82.4189453,26.7851562,87.9873047,37.8725586,88,49.9599609  c0.0029297,2.9257812-0.3271484,5.840332-0.9824219,8.6621094C86.8935547,59.1601562,87.2285156,59.6977539,87.7666016,59.8222656z"/><path d="M50.0410156,90h0.0009766c13.6035156-0.0146484,26.1464844-6.8476562,33.5507812-18.2783203  c0.984375-1.5180664,1.8720703-3.1157227,2.6376953-4.75c0.234375-0.5,0.0195312-1.0952148-0.4804688-1.3295898  c-0.5029297-0.2363281-1.0957031-0.0185547-1.3300781,0.480957c-0.7275391,1.5512695-1.5703125,3.0688477-2.5048828,4.5112305  C74.8789062,81.4941406,62.9638672,87.9863281,50.0400391,88c-0.5527344,0.0004883-1,0.4487305-0.9990234,1.0009766  S49.4892578,90,50.0410156,90z"/><path d="M10.0488281,16.5527344c-0.1181641,0.362793-0.0185547,0.7612305,0.2558594,1.0263672l3.7158203,3.5932617  l-0.8769531,5.0712891c-0.0644531,0.375,0.0888672,0.7539062,0.3955078,0.9780273  c0.1748047,0.1274414,0.3818359,0.1923828,0.5898438,0.1923828c0.1582031,0,0.3164062-0.0375977,0.4619141-0.1132812  l4.6015625-2.3994141l4.5996094,2.3994141c0.3359375,0.1748047,0.7451172,0.1450195,1.0527344-0.0791016  c0.3066406-0.2241211,0.4599609-0.6030273,0.3955078-0.9780273l-0.8769531-5.0712891l3.7158203-3.5932617  c0.2744141-0.2651367,0.3740234-0.6635742,0.2558594-1.0263672c-0.1171875-0.3632812-0.4306641-0.6274414-0.8085938-0.6821289  l-5.140625-0.7416992l-2.2978516-4.6186523c-0.1689453-0.3398438-0.515625-0.5546875-0.8955078-0.5546875  s-0.7265625,0.2148438-0.8955078,0.5546875l-2.2988281,4.6186523l-5.140625,0.7416992  C10.4794922,15.925293,10.1660156,16.1894531,10.0488281,16.5527344z M16.8027344,17.0336914  c0.3251953-0.046875,0.6064453-0.2504883,0.7529297-0.5444336l1.6367188-3.2890625l1.6357422,3.2890625  c0.1464844,0.2939453,0.4277344,0.4975586,0.7529297,0.5444336l3.6416016,0.5253906l-2.6298828,2.543457  c-0.2382812,0.2299805-0.3466797,0.5629883-0.2900391,0.8891602l0.6220703,3.6010742l-3.2695312-1.7060547  c-0.2910156-0.1513672-0.6347656-0.1513672-0.9257812,0l-3.2705078,1.7060547l0.6220703-3.6010742  c0.0566406-0.3261719-0.0517578-0.6591797-0.2900391-0.8891602l-2.6298828-2.543457L16.8027344,17.0336914z"/><path d="M74.2734375,56.5356445c-0.1171875-0.3632812-0.4306641-0.6274414-0.8085938-0.6821289l-6.0458984-0.8720703  l-2.703125-5.4326172c-0.3378906-0.6796875-1.453125-0.6796875-1.7910156,0l-2.703125,5.4326172l-6.0458984,0.8720703  c-0.3779297,0.0546875-0.6914062,0.3188477-0.8085938,0.6821289c-0.1181641,0.362793-0.0185547,0.7612305,0.2558594,1.0263672  l4.3710938,4.2265625l-1.0322266,5.9663086c-0.0644531,0.3745117,0.0888672,0.7539062,0.3955078,0.9780273  c0.3076172,0.2236328,0.7148438,0.253418,1.0527344,0.0791016l5.4101562-2.8217773l5.4101562,2.8217773  c0.1464844,0.0756836,0.3046875,0.1132812,0.4628906,0.1132812c0.2080078,0,0.4150391-0.0649414,0.5898438-0.1923828  c0.3066406-0.2241211,0.4599609-0.6035156,0.3955078-0.9780273l-1.0322266-5.9663086l4.3710938-4.2265625  C74.2919922,57.296875,74.3916016,56.8984375,74.2734375,56.5356445z M67.8759766,60.71875  c-0.2382812,0.2299805-0.3466797,0.5629883-0.2900391,0.8891602l0.7773438,4.4960938l-4.0800781-2.128418  c-0.1455078-0.0756836-0.3037109-0.1132812-0.4628906-0.1132812s-0.3173828,0.0375977-0.4628906,0.1132812l-4.0800781,2.128418  l0.7773438-4.4960938c0.0566406-0.3261719-0.0517578-0.6591797-0.2900391-0.8891602l-3.2851562-3.1767578l4.546875-0.6557617  c0.3251953-0.046875,0.6064453-0.2504883,0.7529297-0.5444336l2.0410156-4.1025391l2.0410156,4.1025391  c0.1464844,0.2939453,0.4277344,0.4975586,0.7529297,0.5444336l4.546875,0.6557617L67.8759766,60.71875z"/><path d="M16.6054688,88.1083984c-0.3837891,0.3979492-0.3720703,1.0307617,0.0263672,1.4140625  c0.1933594,0.1870117,0.4433594,0.2797852,0.6933594,0.2797852c0.2617188,0,0.5234375-0.1025391,0.7197266-0.3061523  l46.015625-47.765625c0.65625-0.65625,1.0185547-1.5292969,1.0185547-2.4575195s-0.3623047-1.8012695-1.0185547-2.4570312  l-0.8759766-0.8769531c-1.3134766-1.3125-3.6181641-1.2978516-4.9003906-0.0126953L10.5048828,81.9550781  c-0.3984375,0.3833008-0.4101562,1.0161133-0.0263672,1.4140625c0.3837891,0.3984375,1.0175781,0.409668,1.4130859,0.0263672  l47.7929688-46.0419922c0.5556641-0.5566406,1.5283203-0.5576172,2.0859375,0l0.8759766,0.8769531  c0.2783203,0.2783203,0.4326172,0.6484375,0.4326172,1.0424805s-0.1542969,0.7641602-0.4453125,1.0561523L16.6054688,88.1083984z"/></svg>